<svg width="107" height="76" viewBox="0 0 107 76" fill="none" xmlns="http://www.w3.org/2000/svg">
<g clip-path="url(#clip0_2104_87)">
<path d="M38.6182 34.0098L0.4291 37.5886L3.6184 28.0081L29.4697 26.4447L28.9968 26.8391L29.3905 25.6563L29.5327 26.2555L9.7764 9.5096L12.9657 -0.0708008L41.3901 25.6831L38.6182 34.0098ZM66.0052 43.1267L68.7771 34.8L106.966 31.2212L103.777 40.8017L77.9257 42.3651L78.3985 41.9707L78.0048 43.1535L77.8627 42.5543L97.619 59.3002L94.43 68.8806L66.0052 43.1267Z" fill="white"/>
<path d="M40.7178 72.841C34.8355 70.8824 29.6888 68.2932 25.2777 65.073C20.8613 61.8686 17.0859 57.949 13.9515 53.3144L17.1565 43.6867C18.3082 45.4365 19.8358 47.2151 21.7392 49.0224C23.6427 50.8297 25.7957 52.5713 28.1984 54.247C30.6168 55.928 33.1877 57.467 35.9108 58.864C38.634 60.261 41.3992 61.4268 44.2063 62.3612C47.9438 63.6054 51.8416 64.4738 55.8994 64.9662C59.9678 65.4797 63.8468 65.6148 67.5365 65.3716C71.2367 65.1494 74.4006 64.5647 77.0282 63.6175L73.8232 73.245C68.5364 75.076 63.165 75.951 57.7092 75.869C52.2481 75.803 46.5843 74.793 40.7178 72.841Z" fill="white"/>
</g>
<defs>
<clipPath id="clip0_2104_87">
<rect width="107" height="76" fill="white"/>
</clipPath>
</defs>
</svg>
